<svg width="18" height="18" viewBox="0 0 18 18" fill="none" xmlns="http://www.w3.org/2000/svg">
<path d="M17.0005 4.19014C17.0266 4.17598 17.0483 4.15572 17.0634 4.13137C17.0784 4.10701 17.0864 4.07942 17.0864 4.05133C17.0864 4.02325 17.0784 3.99565 17.0634 3.9713C17.0483 3.94695 17.0266 3.92668 17.0005 3.91253L10.3916 0.347434C9.96869 0.119853 9.48859 0 8.99981 0C8.51103 0 8.03093 0.119853 7.60806 0.347434L1.00041 3.91253C0.974284 3.92668 0.952608 3.94695 0.937543 3.9713C0.922478 3.99565 0.914551 4.02325 0.914551 4.05133C0.914551 4.07942 0.922478 4.10701 0.937543 4.13137C0.952608 4.15572 0.974284 4.17598 1.00041 4.19014L8.91349 8.51212C8.94011 8.52668 8.97043 8.53436 9.00132 8.53436C9.03222 8.53436 9.06254 8.52668 9.08916 8.51212L17.0005 4.19014Z" fill="#A599BA"/>
<path d="M0.259619 5.28325C0.233226 5.2691 0.203276 5.26167 0.172799 5.26172C0.142323 5.26176 0.112399 5.26928 0.0860545 5.28351C0.0597101 5.29774 0.0378793 5.31817 0.0227692 5.34274C0.00765922 5.36732 -0.000194053 5.39516 3.64236e-06 5.42346V12.4094C0.00065688 12.7461 0.096221 13.0767 0.277192 13.3684C0.458163 13.6602 0.718234 13.9028 1.03154 14.0723L8.04808 17.9784C8.07438 17.9925 8.10421 18 8.13457 18C8.16494 18 8.19478 17.9926 8.22108 17.9785C8.24739 17.9644 8.26924 17.9441 8.28444 17.9197C8.29965 17.8953 8.30767 17.8676 8.3077 17.8394V9.7342C8.30767 9.70602 8.29965 9.67834 8.28446 9.65394C8.26927 9.62954 8.24744 9.60928 8.22116 9.59519L0.259619 5.28325Z" fill="#A599BA"/>
<path d="M9.69238 9.76218V17.8373C9.69241 17.8655 9.70043 17.8932 9.71564 17.9176C9.73084 17.942 9.75269 17.9622 9.779 17.9763C9.8053 17.9904 9.83514 17.9978 9.8655 17.9978C9.89587 17.9978 9.9257 17.9904 9.952 17.9763L16.9681 14.0701C17.2812 13.9009 17.5411 13.6586 17.7222 13.3672C17.9032 13.0759 17.999 12.7456 18.0001 12.4093V5.42332C18 5.39516 17.9919 5.36752 17.9767 5.34317C17.9614 5.31882 17.9396 5.29861 17.9133 5.28457C17.887 5.27053 17.8572 5.26316 17.8268 5.26318C17.7965 5.26321 17.7667 5.27063 17.7405 5.28471L9.77892 9.62357C9.7527 9.63763 9.73091 9.65783 9.71572 9.68215C9.70054 9.70647 9.69249 9.73406 9.69238 9.76218Z" fill="#A599BA"/>
</svg>
